<svg width="13" height="13" viewBox="0 0 13 13" fill="none" xmlns="http://www.w3.org/2000/svg">
<path d="M12.5647 1.45377L11.3939 0.283032C11.3045 0.193021 11.198 0.121657 11.0808 0.0730744C10.9635 0.0244915 10.8378 -0.000344895 10.7109 3.61754e-06H2.28912C2.16226 -0.000295736 2.03661 0.0245647 1.91943 0.0731461C1.80225 0.121728 1.69586 0.193065 1.60643 0.283032L0.43532 1.45377C0.296875 1.59143 0.187113 1.75518 0.11239 1.93555C0.0376679 2.11591 -0.000531059 2.30931 5.57657e-06 2.50454V12.0343C5.57657e-06 12.2904 0.10175 12.536 0.282857 12.7171C0.463963 12.8982 0.709596 13 0.965719 13H12.0343C12.2904 13 12.536 12.8982 12.7171 12.7171C12.8982 12.536 13 12.2904 13 12.0343V2.50454C13.0005 2.30931 12.9623 2.11591 12.8876 1.93555C12.8129 1.75518 12.7031 1.59143 12.5647 1.45377ZM2.28912 0.74286H10.7109C10.8342 0.74286 10.7945 0.734317 11.7319 1.67143H1.26806C2.20109 0.738403 2.16358 0.74286 2.28912 0.74286ZM12.2571 12.0343C12.2571 12.0934 12.2337 12.1501 12.1919 12.1919C12.1501 12.2337 12.0934 12.2571 12.0343 12.2571H0.965719C0.906614 12.2571 0.849929 12.2337 0.808136 12.1919C0.766342 12.1501 0.742862 12.0934 0.742862 12.0343C0.742862 1.89689 0.739891 2.48857 0.748805 2.41429H12.2512C12.2601 2.48857 12.2571 1.92177 12.2571 12.0343Z" fill="#697484"/>
<path d="M10.1553 6.57429H9.02612V4.68C9.02612 4.44358 8.93221 4.21684 8.76503 4.04967C8.59786 3.88249 8.37112 3.78857 8.1347 3.78857H4.86613C4.62971 3.78857 4.40297 3.88249 4.23579 4.04967C4.06862 4.21684 3.9747 4.44358 3.9747 4.68V6.57429H2.82327C2.27764 6.57429 2.02062 7.2488 2.4277 7.61206L5.82924 10.647C5.99068 10.7902 6.19843 10.8701 6.4142 10.8722C6.62997 10.8742 6.8392 10.7982 7.00333 10.6581L10.543 7.61948C10.9605 7.2592 10.7061 6.57429 10.1553 6.57429ZM6.61555 10.2072C6.56093 10.2541 6.49112 10.2796 6.41911 10.279C6.3471 10.2783 6.27779 10.2515 6.22407 10.2035L2.82327 7.16857H4.04899C4.1869 7.16857 4.31916 7.11378 4.41668 7.01627C4.5142 6.91875 4.56898 6.78648 4.56898 6.64857V4.68C4.56898 4.60119 4.60029 4.52561 4.65602 4.46989C4.71174 4.41416 4.78732 4.38286 4.86613 4.38286H8.1347C8.2135 4.38286 8.28908 4.41416 8.34481 4.46989C8.40053 4.52561 8.43184 4.60119 8.43184 4.68V6.64857C8.43184 6.78648 8.48662 6.91875 8.58414 7.01627C8.68166 7.11378 8.81393 7.16857 8.95184 7.16857H10.1549L6.61555 10.2072Z" fill="#697484"/>
</svg>
