<svg width="22" height="22" viewBox="0 0 22 22" fill="none" xmlns="http://www.w3.org/2000/svg">
<path d="M10.9998 22C17.0652 22 21.9996 17.0654 21.9996 10.9999C21.9996 4.93464 17.0652 0 10.9998 0C4.93454 0 0 4.93464 0 10.9999C0 17.0654 4.93454 22 10.9998 22ZM10.9998 1.50581C16.2349 1.50581 20.4938 5.76485 20.4939 10.9999C20.4939 16.2351 16.235 20.4941 10.9998 20.4942C5.76485 20.4941 1.50591 16.2351 1.50591 10.9998C1.50591 5.76495 5.76485 1.50581 10.9998 1.50581Z" fill="black"/>
<path d="M9.52262 15.7114C9.81666 16.0054 10.2934 16.0052 10.5873 15.7114C10.8815 15.4173 10.8815 14.9406 10.5872 14.6465L7.69406 11.7534L16.0721 11.7526C16.4879 11.7525 16.8249 11.4155 16.8249 10.9995C16.8248 10.5837 16.4878 10.2468 16.072 10.2468L7.69366 10.2476L10.5875 7.35396C10.8816 7.05993 10.8816 6.58309 10.5875 6.28915C10.4405 6.14219 10.2478 6.0686 10.0551 6.0686C9.86243 6.0686 9.66979 6.14219 9.52272 6.28905L5.34369 10.468C5.20245 10.6091 5.12314 10.8006 5.12314 11.0003C5.12324 11.2001 5.20255 11.3914 5.34379 11.5329L9.52262 15.7114Z" fill="black"/>
</svg>
