<svg width="11" height="12" viewBox="0 0 11 12" fill="none" xmlns="http://www.w3.org/2000/svg">
<path d="M10.2382 0.906501C9.42103 1.53173 8.68623 1.67327 7.97909 1.59819C7.23737 1.52004 6.50697 1.20435 5.69234 0.848655L5.65903 0.833886C4.88274 0.494195 4.02474 0.118812 3.12211 0.0234274C2.17234 -0.0768799 1.1924 0.131735 0.181029 0.905886C0.124624 0.949067 0.0790073 1.00426 0.0476407 1.06728C0.0162742 1.13029 -1.81592e-05 1.19948 1.51887e-08 1.26958V11.5385C1.89149e-08 11.6609 0.0496682 11.7783 0.138078 11.8648C0.226488 11.9514 0.346398 12 0.471429 12C0.596459 12 0.716369 11.9514 0.804779 11.8648C0.893189 11.7783 0.942857 11.6609 0.942857 11.5385V8.50093C1.68834 7.98709 2.36594 7.8714 3.02091 7.94094C3.76263 8.01848 4.49303 8.33417 5.30766 8.69047L5.34097 8.70463C6.11726 9.04493 6.97526 9.4197 7.87789 9.51509C8.82766 9.61539 9.8076 9.40678 10.819 8.63263C10.8754 8.58945 10.921 8.53425 10.9524 8.47124C10.9837 8.40822 11 8.33904 11 8.26894V1.26958C10.9999 1.18312 10.975 1.09842 10.9281 1.02514C10.8813 0.951858 10.8143 0.892939 10.7349 0.855096C10.6555 0.817252 10.5668 0.802006 10.479 0.811095C10.3912 0.820184 10.3077 0.853241 10.2382 0.906501Z" fill="#3A98EB"/>
</svg>
