<svg width="14" height="14" viewBox="0 0 14 14" fill="none" xmlns="http://www.w3.org/2000/svg">
<path d="M7.00014 0C3.14024 0 0 3.14014 0 6.99991C0 10.8597 3.14024 13.9998 7.00014 13.9998C10.86 13.9998 14.0002 10.8597 14.0002 6.99991C14.0002 3.14014 10.86 0 7.00014 0ZM7.00014 12.8523C3.773 12.8523 1.14755 10.227 1.14755 6.99991C1.14755 3.77288 3.773 1.14753 7.00014 1.14753C10.2272 1.14753 12.8526 3.77288 12.8526 6.99991C12.8526 10.227 10.2272 12.8523 7.00014 12.8523Z" fill="#20BB70"/>
<path d="M10.0284 4.31305L5.87217 8.46925L3.97192 6.56904C3.74783 6.34499 3.38456 6.34499 3.16047 6.56904C2.93642 6.79312 2.93642 7.15639 3.16047 7.38047L5.46644 9.6864C5.57849 9.7984 5.72533 9.85445 5.87217 9.85445C6.01901 9.85445 6.16585 9.7984 6.2779 9.6864L10.8399 5.12453C11.0639 4.90044 11.0639 4.53718 10.8399 4.31309C10.6158 4.089 10.2525 4.089 10.0284 4.31305Z" fill="#20BB70"/>
</svg>
