<svg width="14" height="14" viewBox="0 0 14 14" fill="none" xmlns="http://www.w3.org/2000/svg">
<path d="M12.4288 4.99995V8.42847C12.4288 8.55419 12.4288 8.6799 12.4173 8.7999C11.9488 8.22276 11.2345 7.85705 10.4287 7.85705C9.82301 7.85705 9.263 8.06848 8.82299 8.42276C8.2287 8.89132 7.85726 9.61703 7.85726 10.4284C7.85726 11.2342 8.22298 11.9484 8.80014 12.417C8.68013 12.4284 8.55442 12.4284 8.4287 12.4284H5.00007C2.14288 12.4284 1 11.2856 1 8.42847V4.99995C1 2.14284 2.14288 1 5.00007 1H8.4287C11.2859 1 12.4288 2.14284 12.4288 4.99995Z" stroke="#ADACAC" stroke-linecap="round" stroke-linejoin="round"/>
<path d="M1.29736 3.91968H12.1318" stroke="#ADACAC" stroke-linecap="round" stroke-linejoin="round"/>
<path d="M4.7251 1.06299V3.84009" stroke="#ADACAC" stroke-linecap="round" stroke-linejoin="round"/>
<path d="M8.70361 1.06299V3.58298" stroke="#ADACAC" stroke-linecap="round" stroke-linejoin="round"/>
<path d="M12.9999 10.4286C12.9999 11.2 12.657 11.8857 12.1256 12.36C11.6684 12.7543 11.0798 13 10.4284 13C9.81125 13 9.23981 12.7828 8.79981 12.4171C8.22265 11.9486 7.85693 11.2343 7.85693 10.4286C7.85693 9.61715 8.22837 8.89145 8.82266 8.42288C9.26267 8.0686 9.82268 7.85718 10.4284 7.85718C11.2341 7.85718 11.9484 8.22289 12.417 8.80002C12.7827 9.24002 12.9999 9.81144 12.9999 10.4286Z" stroke="#ADACAC" stroke-miterlimit="10" stroke-linecap="round" stroke-linejoin="round"/>
<path d="M10.5893 9.6228V10.5885L9.78931 11.0685" stroke="#ADACAC" stroke-miterlimit="10" stroke-linecap="round" stroke-linejoin="round"/>
</svg>
