<svg width="11" height="11" viewBox="0 0 11 11" fill="none" xmlns="http://www.w3.org/2000/svg">
<path d="M10.2382 0.830959C9.42103 1.40409 8.68623 1.53383 7.97909 1.46501C7.23737 1.39337 6.50697 1.10398 5.69234 0.777934L5.65903 0.764395C4.88274 0.453012 4.02474 0.108911 3.12211 0.0214752C2.17234 -0.0704732 1.1924 0.120757 0.181029 0.830395C0.124624 0.869978 0.0790073 0.920572 0.0476407 0.978337C0.0162742 1.0361 -1.81592e-05 1.09952 1.51887e-08 1.16378V10.5769C1.89149e-08 10.6891 0.0496682 10.7967 0.138078 10.8761C0.226488 10.9554 0.346398 11 0.471429 11C0.596459 11 0.716369 10.9554 0.804779 10.8761C0.893189 10.7967 0.942857 10.6891 0.942857 10.5769V7.79252C1.68834 7.3215 2.36594 7.21545 3.02091 7.27919C3.76263 7.35027 4.49303 7.63965 5.30766 7.96627L5.34097 7.97924C6.11726 8.29119 6.97526 8.63473 7.87789 8.72216C8.82766 8.81411 9.8076 8.62288 10.819 7.91324C10.8754 7.87366 10.921 7.82306 10.9524 7.7653C10.9837 7.70753 11 7.64412 11 7.57986V1.16378C10.9999 1.08452 10.975 1.00688 10.9281 0.93971C10.8813 0.872536 10.8143 0.818527 10.7349 0.783838C10.6555 0.749148 10.5668 0.735173 10.479 0.743504C10.3912 0.751835 10.3077 0.782138 10.2382 0.830959Z" fill="#4FC079"/>
</svg>
