<svg width="14" height="15" viewBox="0 0 14 15" fill="none" xmlns="http://www.w3.org/2000/svg">
<path fill-rule="evenodd" clip-rule="evenodd" d="M7 0.729248C3.13665 0.729248 0 3.8659 0 7.72925C0 11.5926 3.13665 14.7292 7 14.7292C10.8633 14.7292 14 11.5926 14 7.72925C14 3.8659 10.8633 0.729248 7 0.729248ZM7 1.70599C10.3242 1.70599 13.0233 4.40506 13.0233 7.72925C13.0233 11.0534 10.3242 13.7525 7 13.7525C3.67581 13.7525 0.976744 11.0534 0.976744 7.72925C0.976744 4.40506 3.67581 1.70599 7 1.70599Z" fill="#F1A02E"/>
<path fill-rule="evenodd" clip-rule="evenodd" d="M7.81403 5.1246V10.3339C7.81403 10.6035 8.03282 10.8223 8.3024 10.8223C8.57198 10.8223 8.79077 10.6035 8.79077 10.3339V5.1246C8.79077 4.85502 8.57198 4.63623 8.3024 4.63623C8.03282 4.63623 7.81403 4.85502 7.81403 5.1246Z" fill="#F1A02E"/>
<path fill-rule="evenodd" clip-rule="evenodd" d="M5.20898 5.1246V10.3339C5.20898 10.6035 5.42778 10.8223 5.69736 10.8223C5.96694 10.8223 6.18573 10.6035 6.18573 10.3339V5.1246C6.18573 4.85502 5.96694 4.63623 5.69736 4.63623C5.42778 4.63623 5.20898 4.85502 5.20898 5.1246Z" fill="#F1A02E"/>
</svg>
