<svg width="14" height="4" viewBox="0 0 14 4" fill="none" xmlns="http://www.w3.org/2000/svg">
<path d="M1.72567 0.754717C1.88919 0.754665 2.05112 0.786821 2.20221 0.849349C2.35331 0.911878 2.49061 1.00355 2.60627 1.11915C2.72194 1.23474 2.8137 1.37198 2.87633 1.52303C2.93895 1.67408 2.97121 1.83599 2.97127 1.99952C2.97132 2.16304 2.93916 2.32497 2.87663 2.47606C2.8141 2.62716 2.72243 2.76446 2.60684 2.88012C2.49125 2.99579 2.35401 3.08755 2.20295 3.15018C2.0519 3.2128 1.88999 3.24506 1.72647 3.24512C1.39622 3.24522 1.07945 3.11413 0.845859 2.88069C0.612264 2.64724 0.480972 2.33056 0.480866 2.00032C0.480759 1.67007 0.611848 1.35331 0.845293 1.11971C1.07874 0.886115 1.39542 0.754823 1.72567 0.754717Z" fill="black"/>
<path d="M8.24406 1.99958C8.24406 1.3121 7.68674 0.754785 6.99926 0.754785C6.31177 0.754785 5.75446 1.3121 5.75446 1.99958C5.75446 2.68707 6.31177 3.24438 6.99926 3.24438C7.68674 3.24438 8.24406 2.68707 8.24406 1.99958Z" fill="black"/>
<path d="M13.5183 2.00032C13.5183 1.31283 12.961 0.755517 12.2735 0.755517C11.586 0.755517 11.0287 1.31283 11.0287 2.00032C11.0287 2.6878 11.586 3.24512 12.2735 3.24512C12.961 3.24512 13.5183 2.6878 13.5183 2.00032Z" fill="black"/>
</svg>
