<svg width="18" height="20" viewBox="0 0 18 20" fill="none" xmlns="http://www.w3.org/2000/svg">
<path d="M14.9992 7.85295V7.22664C14.9992 3.78776 12.3132 1 9 1C5.68672 1 3.00077 3.78776 3.00077 7.22664V7.85295C3.00077 8.60462 2.78642 9.33937 2.38471 9.96479L1.40032 11.4973C0.501174 12.8971 1.1876 14.7999 2.75143 15.2426C6.84243 16.4006 11.1576 16.4006 15.2485 15.2426C16.8124 14.7999 17.4988 12.8971 16.5996 11.4973L15.6153 9.96479C15.2136 9.33937 14.9992 8.60462 14.9992 7.85295Z" stroke="black" stroke-width="1.5"/>
<path opacity="0.5" d="M5 16.1111C5.58225 17.6647 7.1533 18.7777 9 18.7777C10.8467 18.7777 12.4178 17.6647 13 16.1111" stroke="black" stroke-width="1.5" stroke-linecap="round"/>
</svg>
