<svg width="12" height="14" viewBox="0 0 12 14" fill="none" xmlns="http://www.w3.org/2000/svg">
<path opacity="0.9" d="M7.66667 3.33333L4.33333 5.66667M7.66667 10.6667L4.33333 8.33333M4.33333 7C4.33333 7.44203 4.15774 7.86595 3.84518 8.17851C3.53262 8.49107 3.10869 8.66667 2.66667 8.66667C2.22464 8.66667 1.80072 8.49107 1.48816 8.17851C1.17559 7.86595 1 7.44203 1 7C1 6.55797 1.17559 6.13405 1.48816 5.82149C1.80072 5.50893 2.22464 5.33333 2.66667 5.33333C3.10869 5.33333 3.53262 5.50893 3.84518 5.82149C4.15774 6.13405 4.33333 6.55797 4.33333 7ZM11 11.3333C11 11.7754 10.8244 12.1993 10.5118 12.5118C10.1993 12.8244 9.77536 13 9.33333 13C8.89131 13 8.46738 12.8244 8.15482 12.5118C7.84226 12.1993 7.66667 11.7754 7.66667 11.3333C7.66667 10.8913 7.84226 10.4674 8.15482 10.1548C8.46738 9.84226 8.89131 9.66667 9.33333 9.66667C9.77536 9.66667 10.1993 9.84226 10.5118 10.1548C10.8244 10.4674 11 10.8913 11 11.3333ZM11 2.66667C11 3.10869 10.8244 3.53262 10.5118 3.84518C10.1993 4.15774 9.77536 4.33333 9.33333 4.33333C8.89131 4.33333 8.46738 4.15774 8.15482 3.84518C7.84226 3.53262 7.66667 3.10869 7.66667 2.66667C7.66667 2.22464 7.84226 1.80072 8.15482 1.48816C8.46738 1.17559 8.89131 1 9.33333 1C9.77536 1 10.1993 1.17559 10.5118 1.48816C10.8244 1.80072 11 2.22464 11 2.66667Z" stroke="white" stroke-width="1.3" stroke-linecap="round" stroke-linejoin="round"/>
</svg>
