<svg width="12" height="13" viewBox="0 0 12 13" fill="none" xmlns="http://www.w3.org/2000/svg">
<path d="M10.9793 1.17129C10.6745 0.907182 10.2692 0.761719 9.83797 0.761719H9.10955V0.634766C9.10955 0.284756 8.78026 0 8.3755 0H3.09035C2.68559 0 2.3563 0.284756 2.3563 0.634766V0.761719H1.62527C0.736752 0.761719 0.013067 1.3875 0.0120687 2.15665L9.85145e-07 11.602C-0.000468806 11.9753 0.1671 12.3263 0.471848 12.5904C0.776625 12.8545 1.18197 13 1.61321 13H9.82587C10.7144 13 11.4381 12.3742 11.4391 11.6051L11.4512 2.15975C11.4517 1.78643 11.2841 1.43538 10.9793 1.17129ZM3.23716 0.761719H8.22869V1.52344H3.23716V0.761719ZM10.5592 11.6042C10.5587 11.9539 10.2297 12.2383 9.82587 12.2383H1.61321C1.41719 12.2383 1.23294 12.1722 1.09441 12.0521C0.95588 11.932 0.879715 11.7725 0.879921 11.6028L0.891988 2.15752C0.892429 1.80786 1.22137 1.52344 1.62527 1.52344H2.3563V1.65039C2.3563 2.0004 2.68559 2.28516 3.09035 2.28516H8.3755C8.78026 2.28516 9.10955 2.0004 9.10955 1.65039V1.52344H9.83797C10.034 1.52344 10.2182 1.58955 10.3568 1.7096C10.4953 1.82965 10.5715 1.98923 10.5713 2.15889L10.5592 11.6042Z" fill="#697484"/>
<path d="M5.87538 5.07812H9.00452C9.24775 5.07812 9.44495 4.9076 9.44495 4.69727C9.44495 4.48693 9.24775 4.31641 9.00452 4.31641H5.87538C5.63215 4.31641 5.43495 4.48693 5.43495 4.69727C5.43495 4.9076 5.63215 5.07812 5.87538 5.07812Z" fill="#697484"/>
<path d="M5.87538 7.61719H9.00452C9.24775 7.61719 9.44495 7.44666 9.44495 7.23633C9.44495 7.02599 9.24775 6.85547 9.00452 6.85547H5.87538C5.63215 6.85547 5.43495 7.02599 5.43495 7.23633C5.43495 7.44666 5.63215 7.61719 5.87538 7.61719Z" fill="#697484"/>
<path d="M9.01711 9.39453H5.87538C5.63215 9.39453 5.43495 9.56505 5.43495 9.77539C5.43495 9.98573 5.63215 10.1562 5.87538 10.1562H9.01711C9.26035 10.1562 9.45754 9.98573 9.45754 9.77539C9.45754 9.56505 9.26038 9.39453 9.01711 9.39453Z" fill="#697484"/>
<path d="M4.00064 3.66038L2.98495 4.53869L2.74547 4.33158C2.57347 4.18284 2.29462 4.18284 2.12262 4.33158C1.95061 4.48029 1.95061 4.72145 2.12262 4.87019L2.67353 5.34662C2.75613 5.41804 2.86815 5.45819 2.98498 5.45819C3.10178 5.45819 3.2138 5.41807 3.29639 5.34662L4.62352 4.19902C4.79552 4.0503 4.79552 3.80914 4.62352 3.6604C4.45152 3.51164 4.17267 3.51164 4.00064 3.66038Z" fill="#697484"/>
<path d="M4.00064 6.39327L2.98495 7.27158L2.74547 7.0645C2.57347 6.91576 2.29462 6.91576 2.12262 7.0645C1.95061 7.21321 1.95061 7.45434 2.12262 7.60311L2.67353 8.07954C2.75613 8.15096 2.86815 8.1911 2.98498 8.1911C3.10178 8.1911 3.21382 8.15099 3.29639 8.07954L4.62352 6.93191C4.79552 6.78319 4.79552 6.54203 4.62352 6.3933C4.45152 6.24456 4.17264 6.24456 4.00064 6.39327Z" fill="#697484"/>
<path d="M4.00064 8.93233L2.98495 9.81064L2.74547 9.60356C2.57347 9.45482 2.29462 9.45482 2.12262 9.60356C1.95061 9.75227 1.95061 9.99341 2.12262 10.1422L2.67353 10.6186C2.75613 10.69 2.86815 10.7302 2.98498 10.7302C3.10178 10.7302 3.21382 10.69 3.29639 10.6186L4.62352 9.47097C4.79552 9.32226 4.79552 9.0811 4.62352 8.93236C4.45152 8.78362 4.17264 8.78362 4.00064 8.93233Z" fill="#697484"/>
</svg>
